<svg version="1.0" xmlns="http://www.w3.org/2000/svg" width="500px" height="500px"
     viewBox="0 0 500 500" preserveAspectRatio="xMidYMid meet">
    <g transform="translate(0,500) scale(0.1,-0.1)" fill="#FFFFFF" stroke="#000000" stroke-width="100">
        <path d="M2120 3939 c-47 -5 -143 -20 -214 -34 -461 -93 -723 -312 -822 -690 -24 -89 -27 -119 -28 -280 -1 -143 3 -196 18 -260 87 -375 331 -603 764 -716 201 -52 320 -63 697 -63 l340 -1 3 187 2 186 -387 5 c-413 5 -442 8 -586 60 -192 70 -322 208 -373 397 -22 81 -25 281 -5 360 55 225 226 387 473 449 91 24 239 41 343 41 l75 0 0 -230 0 -230 230 0 230 0 -2 413 -3 412 -335 1 c-184 1 -373 -2 -420 -7z"/>
        <path d="M2424 2907 c-2 -7 -3 -91 -2 -187 l3 -175 383 -3 c210 -1 382 -5 382 -7 0 -3 -92 -204 -205 -447 -113 -242 -205 -445 -205 -449 0 -5 109 -9 243 -9 l242 0 294 630 c166 357 291 636 287 645 -5 13 -90 15 -711 15 -566 0 -707 -3 -711 -13z m1288 -72"/>
        <path d="M2671 1418 c-5 -13 -44 -95 -86 -183 -70 -147 -75 -160 -59 -172 24 -18 1370 -19 1409 -1 l25 11 0 170 c0 150 -2 171 -17 183 -15 11 -139 13 -641 14 l-622 0 -9 -22z"/>
    </g>
</svg>
